<svg width="18" height="18" viewBox="0 0 18 18" xmlns="http://www.w3.org/2000/svg">
<path d="M15 3.54545V6.81818C15 6.96285 14.9425 7.10158 14.8402 7.20388C14.7379 7.30617 14.5992 7.36364 14.4545 7.36364C14.3099 7.36364 14.1711 7.30617 14.0689 7.20388C13.9666 7.10158 13.9091 6.96285 13.9091 6.81818V4.86205L10.4768 8.295C10.3745 8.39735 10.2357 8.45485 10.0909 8.45485C9.94617 8.45485 9.80735 8.39735 9.705 8.295C9.60265 8.19265 9.54515 8.05383 9.54515 7.90909C9.54515 7.76435 9.60265 7.62553 9.705 7.52318L13.138 4.09091H11.1818C11.0372 4.09091 10.8984 4.03344 10.7961 3.93115C10.6938 3.82886 10.6364 3.69012 10.6364 3.54545C10.6364 3.40079 10.6938 3.26205 10.7961 3.15976C10.8984 3.05747 11.0372 3 11.1818 3H14.4545C14.5992 3 14.7379 3.05747 14.8402 3.15976C14.9425 3.26205 15 3.40079 15 3.54545ZM7.52318 9.705L4.09091 13.138V11.1818C4.09091 11.0372 4.03344 10.8984 3.93115 10.7961C3.82886 10.6938 3.69012 10.6364 3.54545 10.6364C3.40079 10.6364 3.26205 10.6938 3.15976 10.7961C3.05747 10.8984 3 11.0372 3 11.1818V14.4545C3 14.5992 3.05747 14.7379 3.15976 14.8402C3.26205 14.9425 3.40079 15 3.54545 15H6.81818C6.96285 15 7.10158 14.9425 7.20388 14.8402C7.30617 14.7379 7.36364 14.5992 7.36364 14.4545C7.36364 14.3099 7.30617 14.1711 7.20388 14.0689C7.10158 13.9666 6.96285 13.9091 6.81818 13.9091H4.86205L8.295 10.4768C8.39735 10.3745 8.45485 10.2357 8.45485 10.0909C8.45485 9.94617 8.39735 9.80735 8.295 9.705C8.19265 9.60265 8.05383 9.54515 7.90909 9.54515C7.76435 9.54515 7.62553 9.60265 7.52318 9.705Z" fill="currentColor"/>
</svg>
