<svg width="18" height="18" viewBox="0 0 18 18" xmlns="http://www.w3.org/2000/svg">
<path d="M9.00015 5.62515C8.33264 5.62515 7.68012 5.82309 7.1251 6.19394C6.57009 6.56479 6.13751 7.0919 5.88206 7.7086C5.62662 8.3253 5.55978 9.0039 5.69 9.65858C5.82023 10.3133 6.14167 10.9146 6.61367 11.3866C7.08567 11.8586 7.68704 12.1801 8.34172 12.3103C8.99641 12.4405 9.67501 12.3737 10.2917 12.1182C10.9084 11.8628 11.4355 11.4302 11.8064 10.8752C12.1772 10.3202 12.3752 9.66767 12.3752 9.00015C12.3742 8.10533 12.0183 7.24743 11.3856 6.6147C10.7529 5.98196 9.89497 5.62608 9.00015 5.62515ZM9.00015 11.2502C8.55515 11.2502 8.12013 11.1182 7.75012 10.871C7.38011 10.6237 7.09172 10.2723 6.92142 9.86119C6.75113 9.45006 6.70657 8.99766 6.79339 8.5612C6.8802 8.12474 7.0945 7.72383 7.40916 7.40916C7.72383 7.0945 8.12474 6.8802 8.5612 6.79339C8.99766 6.70657 9.45006 6.75113 9.86119 6.92142C10.2723 7.09172 10.6237 7.38011 10.871 7.75012C11.1182 8.12013 11.2502 8.55515 11.2502 9.00015C11.2502 9.59689 11.0131 10.1692 10.5911 10.5911C10.1692 11.0131 9.59689 11.2502 9.00015 11.2502ZM15.1877 9.15203C15.1905 9.05078 15.1905 8.94953 15.1877 8.84828L16.2367 7.53765C16.2917 7.46884 16.3298 7.38807 16.3479 7.30185C16.3659 7.21562 16.3635 7.12636 16.3408 7.04125C16.1688 6.3948 15.9115 5.77411 15.5758 5.19554C15.5318 5.11983 15.4708 5.05542 15.3975 5.00745C15.3243 4.95948 15.2409 4.92927 15.1539 4.91922L13.4861 4.73359C13.4167 4.66047 13.3464 4.59015 13.2752 4.52265L13.0783 2.85062C13.0682 2.76358 13.0378 2.68012 12.9897 2.60687C12.9416 2.53363 12.8771 2.47263 12.8012 2.42875C12.2225 2.0936 11.6018 1.8366 10.9555 1.66445C10.8704 1.64181 10.7811 1.63949 10.6949 1.65769C10.6086 1.67589 10.5279 1.71409 10.4591 1.76922L9.15203 2.81265C9.05078 2.81265 8.94953 2.81265 8.84828 2.81265L7.53765 1.7657C7.46884 1.71069 7.38807 1.67262 7.30185 1.65454C7.21562 1.63647 7.12636 1.6389 7.04125 1.66164C6.3949 1.83392 5.77426 2.09117 5.19554 2.42664C5.11983 2.4706 5.05542 2.53163 5.00745 2.60487C4.95948 2.67811 4.92927 2.76154 4.91922 2.84851L4.73359 4.51914C4.66047 4.58898 4.59015 4.65929 4.52265 4.73008L2.85062 4.92203C2.76358 4.93216 2.68012 4.96248 2.60687 5.01057C2.53363 5.05867 2.47263 5.12322 2.42875 5.19906C2.0936 5.77785 1.8366 6.39848 1.66445 7.04476C1.64181 7.12993 1.63949 7.21922 1.65769 7.30545C1.67589 7.39167 1.71409 7.47242 1.76922 7.54117L2.81265 8.84828C2.81265 8.94953 2.81265 9.05078 2.81265 9.15203L1.7657 10.4627C1.71069 10.5315 1.67262 10.6122 1.65454 10.6985C1.63647 10.7847 1.6389 10.8739 1.66164 10.9591C1.83362 11.6055 2.09087 12.2262 2.42664 12.8048C2.4706 12.8805 2.53163 12.9449 2.60487 12.9929C2.67811 13.0408 2.76154 13.071 2.84851 13.0811L4.51633 13.2667C4.58617 13.3398 4.65648 13.4102 4.72726 13.4777L4.92203 15.1497C4.93216 15.2367 4.96248 15.3202 5.01057 15.3934C5.05867 15.4667 5.12322 15.5277 5.19906 15.5716C5.77785 15.9067 6.39848 16.1637 7.04476 16.3359C7.12993 16.3585 7.21922 16.3608 7.30545 16.3426C7.39167 16.3244 7.47242 16.2862 7.54117 16.2311L8.84828 15.1877C8.94953 15.1905 9.05078 15.1905 9.15203 15.1877L10.4627 16.2367C10.5315 16.2917 10.6122 16.3298 10.6985 16.3479C10.7847 16.3659 10.8739 16.3635 10.9591 16.3408C11.6055 16.1688 12.2262 15.9115 12.8048 15.5758C12.8805 15.5318 12.9449 15.4708 12.9929 15.3975C13.0408 15.3243 13.071 15.2409 13.0811 15.1539L13.2667 13.4861C13.3398 13.4167 13.4102 13.3464 13.4777 13.2752L15.1497 13.0783C15.2367 13.0682 15.3202 13.0378 15.3934 12.9897C15.4667 12.9416 15.5277 12.8771 15.5716 12.8012C15.9067 12.2225 16.1637 11.6018 16.3359 10.9555C16.3585 10.8704 16.3608 10.7811 16.3426 10.6949C16.3244 10.6086 16.2862 10.5279 16.2311 10.4591L15.1877 9.15203ZM14.0556 8.695C14.0676 8.89826 14.0676 9.10205 14.0556 9.30531C14.0472 9.44447 14.0908 9.58179 14.178 9.69062L15.1757 10.9373C15.0612 11.3011 14.9146 11.6541 14.7377 11.992L13.1486 12.172C13.0102 12.1873 12.8824 12.2535 12.79 12.3576C12.6547 12.5098 12.5105 12.6539 12.3583 12.7893C12.2542 12.8817 12.188 13.0095 12.1727 13.1479L11.9962 14.7355C11.6583 14.9126 11.3054 15.0592 10.9415 15.1736L9.69414 14.1759C9.59433 14.0961 9.47034 14.0527 9.34258 14.0528H9.30883C9.10556 14.0648 8.90178 14.0648 8.69851 14.0528C8.55935 14.0444 8.42204 14.088 8.3132 14.1752L7.06304 15.1736C6.6992 15.0591 6.34625 14.9125 6.00836 14.7355L5.82836 13.1486C5.813 13.0102 5.74686 12.8824 5.64273 12.79C5.49051 12.6547 5.34636 12.5105 5.21101 12.3583C5.11858 12.2542 4.99081 12.188 4.85242 12.1727L3.26476 11.9955C3.08771 11.6576 2.94112 11.3047 2.82672 10.9408L3.82445 9.69344C3.91157 9.5846 3.95517 9.44728 3.94679 9.30812C3.93484 9.10486 3.93484 8.90107 3.94679 8.69781C3.95517 8.55865 3.91157 8.42134 3.82445 8.3125L2.82672 7.06304C2.9412 6.6992 3.0878 6.34625 3.26476 6.00836L4.85172 5.82836C4.9901 5.813 5.11787 5.74686 5.21031 5.64273C5.34566 5.49051 5.48981 5.34636 5.64203 5.21101C5.74657 5.11852 5.81298 4.99045 5.82836 4.85172L6.00484 3.26476C6.3427 3.08771 6.69565 2.94112 7.05953 2.82672L8.30687 3.82445C8.41571 3.91157 8.55302 3.95517 8.69219 3.94679C8.89545 3.93484 9.09924 3.93484 9.3025 3.94679C9.44166 3.95517 9.57897 3.91157 9.68781 3.82445L10.9373 2.82672C11.3011 2.9412 11.6541 3.0878 11.992 3.26476L12.172 4.85172C12.1873 4.9901 12.2535 5.11787 12.3576 5.21031C12.5098 5.34566 12.6539 5.48981 12.7893 5.64203C12.8817 5.74615 13.0095 5.81229 13.1479 5.82765L14.7355 6.00414C14.9126 6.34199 15.0592 6.69495 15.1736 7.05883L14.1759 8.30617C14.0879 8.41592 14.0442 8.55465 14.0535 8.695H14.0556Z" fill="currentColor"/>
</svg>
