<svg width="180" height="70" viewBox="0 0 180 70" fill="none" xmlns="http://www.w3.org/2000/svg">
<g id="stats">
<rect width="180" height="70" rx="28" fill="#950FFF"/>
<g id="Group 38">
<rect id="Rectangle 4" x="6" y="6" width="66" height="59" rx="22.2785" fill="white"/>
<g id="Mask group">
<mask id="mask0_5746_99536" style="mask-type:alpha" maskUnits="userSpaceOnUse" x="10" y="10" width="58" height="50">
<rect id="Rectangle 5" x="10" y="10" width="58" height="50" rx="18.7342" fill="#D9D9D9"/>
</mask>
<g mask="url(#mask0_5746_99536)">
<rect id="Rectangle 6" x="10" y="10" width="58" height="50" rx="18.7342" fill="black"/>
<path id="Vector 1" d="M0.999999 53L20.314 24.7719C23.5312 20.0697 30.4688 20.0697 33.686 24.7719L46.314 43.2281C49.5312 47.9303 56.4688 47.9303 59.686 43.2281L79 15" stroke="white" stroke-width="4.81013"/>
</g>
</g>
</g>
<g id="Group 41">
<rect id="Rectangle 4_2" x="6" y="6" width="66" height="59" rx="22.2785" fill="white"/>
<g id="Mask group_2">
<mask id="mask1_5746_99536" style="mask-type:alpha" maskUnits="userSpaceOnUse" x="10" y="10" width="58" height="50">
<rect id="Rectangle 5_2" x="10" y="10" width="58" height="50" rx="18.7342" fill="#D9D9D9"/>
</mask>
<g mask="url(#mask1_5746_99536)">
<rect id="Rectangle 6_2" x="10" y="10" width="58" height="50" rx="18.7342" fill="black"/>
<path id="Vector 8 (Stroke)" fill-rule="evenodd" clip-rule="evenodd" d="M31.6574 18.6944C32.2193 18.2859 32.9866 18.3106 33.5211 18.7544L45.0491 28.3267C45.2352 28.4812 45.5047 28.4825 45.6923 28.3297L53.2745 22.1557C53.9235 21.6273 54.8775 21.7233 55.4082 22.3704L56.0333 23.1326C56.5667 23.7829 56.4701 24.7427 55.818 25.2738L46.3129 33.0134C45.7501 33.4717 44.9418 33.4678 44.3834 33.0042L32.985 23.5396C32.8081 23.3927 32.5545 23.3834 32.3674 23.517L4.77915 43.2049C4.14596 43.6568 3.27373 43.5573 2.7586 42.9744L2.10643 42.2364C1.51315 41.5651 1.62674 40.5288 2.35136 40.002L31.6574 18.6944Z" fill="white"/>
<path id="Polygon 1" d="M60.6176 16.9184C61.1918 16.8079 61.6702 17.3604 61.4787 17.9129L58.087 27.7013C57.8956 28.2537 57.1779 28.3918 56.7952 27.9498L50.014 20.1182C49.6313 19.6763 49.8706 18.9857 50.4447 18.8753L60.6176 16.9184Z" fill="white"/>
<g id="Group 40">
<rect id="Rectangle 16" x="28" y="30" width="10" height="42" rx="1.45036" fill="white"/>
<rect id="Rectangle 19" x="16" y="38" width="10" height="30" rx="1.45036" fill="white"/>
<rect id="Rectangle 17" x="40" y="37" width="10" height="37" rx="1.45036" fill="white"/>
<rect id="Rectangle 18" x="53" y="32" width="10" height="43" rx="1.45036" fill="white"/>
</g>
</g>
</g>
</g>
<g id="Vector">
<path d="M79 31.471H87.5676C92.785 31.471 96.8766 30.794 96.8766 26.3257C96.8766 23.3468 95.0642 21.6949 91.8239 21.397C93.2793 21.1262 95.4487 20.2054 95.4487 16.9828C95.4487 13.2999 92.785 12.3791 87.3754 12.3791H79V31.471ZM84.5636 27.2735C84.1176 27.2735 83.756 26.9169 83.756 26.477V23.4551H87.8422C90.3136 23.4551 91.8239 23.3468 91.8239 25.3507C91.8239 27.3547 90.396 27.2735 87.8422 27.2735H84.5636ZM83.756 19.6097V17.1294C83.756 16.6895 84.1176 16.3329 84.5636 16.3329H87.8696C89.5173 16.3329 90.6157 16.3058 90.6157 17.9848C90.6157 19.718 89.4074 19.6097 87.8696 19.6097H83.756Z" fill="white"/>
<path d="M118.43 21.9115C118.43 27.5714 122.571 31.8501 128.887 31.8501C135.176 31.8501 139.289 27.5714 139.289 21.9115C139.289 16.2787 135.176 12 128.887 12C122.571 12 118.43 16.2787 118.43 21.9115ZM123.593 21.9115C123.593 18.4723 125.537 16.7338 128.887 16.7338C132.21 16.7338 134.154 18.4452 134.154 21.9115C134.154 25.3778 132.237 27.1163 128.887 27.1163C125.537 27.1163 123.593 25.3778 123.593 21.9115Z" fill="white"/>
<path fill-rule="evenodd" clip-rule="evenodd" d="M142.132 12.531H158.599V16.7789H151.281L158.256 25.1002C158.902 24.1732 159.446 23.0072 159.834 21.5498L164 22.6279C163.362 25.0262 162.347 26.9569 161.073 28.4598L162.61 30.2935L159.29 33L157.757 31.171C157.118 31.5197 156.452 31.8051 155.767 32.0298C152.183 33.205 148.319 32.6388 145.433 31.2487C143.981 30.5496 142.665 29.5892 141.735 28.4056C140.798 27.2142 140.176 25.6809 140.44 23.9884C140.703 22.2918 141.789 20.8667 143.372 19.7569C144.29 19.1139 145.416 18.5435 146.756 18.0475L142.132 12.531ZM149.699 21.5584C147.887 22.0798 146.659 22.6649 145.868 23.2194C144.922 23.8825 144.734 24.3977 144.697 24.6322C144.66 24.8708 144.712 25.2593 145.139 25.8034C145.573 26.3554 146.311 26.9444 147.323 27.4317C149.363 28.4145 152.059 28.7693 154.408 27.9989C154.584 27.9411 154.76 27.8765 154.935 27.8046L149.699 21.5584Z" fill="white"/>
<path d="M99.1891 31.4578H103.945V24.9855H110.848C111.294 24.9855 111.656 25.3421 111.656 25.782V31.4578H116.626V25.6625C116.626 23.9023 115.693 22.2503 113.029 22.2503H111.804C114.347 22.0825 116.407 20.4901 116.407 17.43C116.407 13.2325 112.123 12.3659 107.729 12.3659H99.1891V31.4578ZM103.945 20.7067V16.6717H107.729C109.844 16.6717 111.436 16.7259 111.436 18.7028C111.436 20.6255 109.953 20.7067 107.729 20.7067H103.945Z" fill="white"/>
</g>
<g id="stats_2">
<path d="M97.3013 51.6398C97.3013 48.689 95.7503 46.7694 92.3898 45.9386L85.8124 44.3056C84.5487 43.9618 84.2327 43.4748 84.2327 42.9018C84.2327 41.7558 85.238 41.2688 87.1624 41.2688C89.9197 41.2688 91.1548 42.1855 91.1548 44.3629H96.5258C96.5258 39.9795 93.3951 37 87.0762 37C81.7626 37 78.8329 39.0914 78.8329 43.0164C78.8329 45.5662 79.9244 47.6003 83.4285 48.5457L90.2069 50.322C91.3558 50.6085 91.9303 51.1528 91.9303 51.869C91.9303 53.1296 90.8388 53.6453 88.2825 53.6453C84.5199 53.6453 83.3998 52.5853 83.3998 49.7203H78C78 54.9632 81.0158 58 88.1676 58C94.6589 58 97.3013 55.4789 97.3013 51.6398Z" fill="black"/>
<path d="M96.1033 37.4011V41.9563H102.623V57.5989H107.822V41.9563H114.342V37.4011H96.1033Z" fill="black"/>
<path d="M110.578 57.5989H116.064L117.96 51.4966H125.657L127.553 57.5989H133.096L126.634 37.4011H117.069L110.578 57.5989ZM119.396 46.9413L121.808 39.2347L124.221 46.9413H119.396Z" fill="black"/>
<path d="M129.345 37.4011V41.9563H135.865V57.5989H141.063V41.9563H147.583V37.4011H129.345Z" fill="black"/>
<path d="M166 51.6398C166 48.689 164.449 46.7694 161.089 45.9386L154.511 44.3056C153.247 43.9618 152.931 43.4748 152.931 42.9018C152.931 41.7558 153.937 41.2688 155.861 41.2688C158.618 41.2688 159.853 42.1855 159.853 44.3629H165.225C165.225 39.9795 162.094 37 155.775 37C150.461 37 147.532 39.0914 147.532 43.0164C147.532 45.5662 148.623 47.6003 152.127 48.5457L158.906 50.322C160.055 50.6085 160.629 51.1528 160.629 51.869C160.629 53.1296 159.538 53.6453 156.981 53.6453C153.219 53.6453 152.098 52.5853 152.098 49.7203H146.699C146.699 54.9632 149.715 58 156.866 58C163.358 58 166 55.4789 166 51.6398Z" fill="black"/>
</g>
</g>
</svg>
