<svg width="0" height="0" class="hidden">
  <symbol xmlns="http://www.w3.org/2000/svg" viewBox="0 0 24 24" id="ic_arr_down">
    <path d="M19 8.5L12 15.5L5 8.5" stroke="currentColor" stroke-linecap="round" stroke-linejoin="round" fill="none"></path>
  </symbol>
  <symbol xmlns="http://www.w3.org/2000/svg" viewBox="0 0 36 36" id="ic_bug">
    <path d="M28.2656 15.7676C29.0273 15.791 29.7422 15.9492 30.4102 16.2422C31.0781 16.5352 31.6582 16.9395 32.1504 17.4551C32.6426 17.9707 33.0293 18.5566 33.3105 19.2129C33.5918 19.8691 33.7383 20.5898 33.75 21.375V24.75H31.5V21.375C31.5 21 31.4414 20.6426 31.3242 20.3027C31.207 19.9629 31.0371 19.6465 30.8145 19.3535C30.5918 19.0605 30.3281 18.8145 30.0234 18.6152C29.7188 18.416 29.3848 18.2578 29.0215 18.1406C29.0918 18.4805 29.1445 18.8262 29.1797 19.1777C29.2148 19.5293 29.2383 19.8867 29.25 20.25V24.75C29.25 24.832 29.2441 24.9082 29.2324 24.9785C29.2207 25.0488 29.209 25.125 29.1973 25.207L29.3027 25.1016C30.0059 25.8047 30.5449 26.6133 30.9199 27.5273C31.2949 28.4414 31.4824 29.3965 31.4824 30.3926C31.4824 31.3887 31.2949 32.3379 30.9199 33.2402C30.5449 34.1426 30.0059 34.9512 29.3027 35.666L27.7207 34.084C28.2129 33.5918 28.5879 33.0352 28.8457 32.4141C29.1035 31.793 29.2324 31.125 29.2324 30.4102C29.2324 29.6133 29.0508 28.8398 28.6875 28.0898C28.3242 29.2617 27.7969 30.334 27.1055 31.3066C26.4141 32.2793 25.5938 33.1113 24.6445 33.8027C23.6953 34.4941 22.6641 35.0332 21.5508 35.4199C20.4375 35.8066 19.2539 36 18 36C16.7695 36 15.5918 35.8066 14.4668 35.4199C13.3418 35.0332 12.3047 34.4941 11.3555 33.8027C10.4062 33.1113 9.5918 32.2793 8.91211 31.3066C8.23242 30.334 7.69922 29.2617 7.3125 28.0898C6.94922 28.8398 6.76758 29.6133 6.76758 30.4102C6.76758 31.1133 6.89648 31.7754 7.1543 32.3965C7.41211 33.0176 7.78711 33.5801 8.2793 34.084L6.69727 35.666C5.99414 34.9629 5.45508 34.1602 5.08008 33.2578C4.70508 32.3555 4.51172 31.4004 4.5 30.3926C4.5 29.3965 4.6875 28.4414 5.0625 27.5273C5.4375 26.6133 5.98242 25.8047 6.69727 25.1016L6.80273 25.207C6.79102 25.125 6.7793 25.0488 6.76758 24.9785C6.75586 24.9082 6.75 24.832 6.75 24.75V20.25C6.75 19.8984 6.76758 19.5469 6.80273 19.1953C6.83789 18.8438 6.89648 18.4922 6.97852 18.1406C6.61523 18.2461 6.28125 18.3984 5.97656 18.5977C5.67188 18.7969 5.41406 19.043 5.20312 19.3359C4.99219 19.6289 4.82227 19.9453 4.69336 20.2852C4.56445 20.625 4.5 20.9883 4.5 21.375V24.75H2.25V21.375C2.25 20.6133 2.39062 19.8984 2.67188 19.2305C2.95312 18.5625 3.3457 17.9707 3.84961 17.4551C4.35352 16.9395 4.93359 16.541 5.58984 16.2598C6.24609 15.9785 6.96094 15.8145 7.73438 15.7676C8.09766 14.9473 8.56641 14.1562 9.14062 13.3945C8.47266 13.2773 7.85742 13.0547 7.29492 12.7266C6.73242 12.3984 6.24023 11.9824 5.81836 11.4785C5.39648 10.9746 5.07422 10.4238 4.85156 9.82617C4.62891 9.22852 4.51172 8.57812 4.5 7.875V4.5H6.75V7.875C6.75 8.34375 6.83789 8.7832 7.01367 9.19336C7.18945 9.60352 7.42969 9.96094 7.73438 10.2656C8.03906 10.5703 8.39648 10.8105 8.80664 10.9863C9.2168 11.1621 9.65625 11.25 10.125 11.25H11.25V11.3027C11.8008 10.8926 12.3633 10.5469 12.9375 10.2656C12.7617 9.89062 12.627 9.50391 12.5332 9.10547C12.4395 8.70703 12.3867 8.29688 12.375 7.875C12.375 7.05469 12.5566 6.26367 12.9199 5.50195L10.459 3.04102L12.041 1.45898L14.2734 3.69141C14.8008 3.23438 15.375 2.88281 15.9961 2.63672C16.6172 2.39062 17.2852 2.26172 18 2.25C18.7031 2.25 19.3652 2.37305 19.9863 2.61914C20.6074 2.86523 21.1875 3.22266 21.7266 3.69141L23.959 1.45898L25.541 3.04102L23.0801 5.50195C23.4434 6.26367 23.625 7.05469 23.625 7.875C23.625 8.28516 23.5781 8.68945 23.4844 9.08789C23.3906 9.48633 23.25 9.87891 23.0625 10.2656C23.3672 10.418 23.6543 10.5762 23.9238 10.7402C24.1934 10.9043 24.4688 11.0918 24.75 11.3027V11.25H25.875C26.3438 11.25 26.7832 11.1621 27.1934 10.9863C27.6035 10.8105 27.9609 10.5703 28.2656 10.2656C28.5703 9.96094 28.8105 9.60352 28.9863 9.19336C29.1621 8.7832 29.25 8.34375 29.25 7.875V4.5H31.5V7.875C31.5 8.55469 31.3828 9.19922 31.1484 9.80859C30.9141 10.418 30.5918 10.9746 30.1816 11.4785C29.7715 11.9824 29.2852 12.3926 28.7227 12.709C28.1602 13.0254 27.5391 13.2539 26.8594 13.3945C27.4336 14.1562 27.9023 14.9473 28.2656 15.7676ZM18 4.5C17.5312 4.5 17.0918 4.58789 16.6816 4.76367C16.2715 4.93945 15.9141 5.17969 15.6094 5.48438C15.3047 5.78906 15.0645 6.14648 14.8887 6.55664C14.7129 6.9668 14.625 7.40625 14.625 7.875C14.625 8.46094 14.7656 8.98828 15.0469 9.45703C15.5391 9.32812 16.0254 9.22852 16.5059 9.1582C16.9863 9.08789 17.4844 9.04688 18 9.03516C18.5039 9.03516 18.9961 9.07031 19.4766 9.14062C19.957 9.21094 20.4492 9.31641 20.9531 9.45703C21.2344 8.98828 21.375 8.46094 21.375 7.875C21.375 7.40625 21.2871 6.9668 21.1113 6.55664C20.9355 6.14648 20.6953 5.78906 20.3906 5.48438C20.0859 5.17969 19.7285 4.93945 19.3184 4.76367C18.9082 4.58789 18.4688 4.5 18 4.5ZM27 20.25C27 19.0312 26.7598 17.877 26.2793 16.7871C25.7988 15.6973 25.1543 14.7422 24.3457 13.9219C23.5371 13.1016 22.582 12.4512 21.4805 11.9707C20.3789 11.4902 19.2188 11.25 18 11.25C16.7695 11.25 15.6094 11.4902 14.5195 11.9707C13.4297 12.4512 12.4805 13.1016 11.6719 13.9219C10.8633 14.7422 10.2129 15.6973 9.7207 16.7871C9.22852 17.877 8.98828 19.0312 9 20.25V24.75C9 25.9922 9.23438 27.1582 9.70312 28.248C10.1719 29.3379 10.8164 30.2871 11.6367 31.0957C12.457 31.9043 13.4121 32.5488 14.502 33.0293C15.5918 33.5098 16.7578 33.75 18 33.75C19.2422 33.75 20.4082 33.5156 21.498 33.0469C22.5879 32.5781 23.5371 31.9336 24.3457 31.1133C25.1543 30.293 25.7988 29.3379 26.2793 28.248C26.7598 27.1582 27 25.9922 27 24.75V20.25Z" fill="currentColor"></path>
  </symbol>
  <symbol xmlns="http://www.w3.org/2000/svg" viewBox="0 0 16 16" id="ic_check">
    <path d="M12 4.6665L6.28571 11.3332L4 8.6665" stroke="currentColor" stroke-linecap="round" stroke-linejoin="round" fill="none"></path>
  </symbol>
  <symbol xmlns="http://www.w3.org/2000/svg" viewBox="0 0 36 37" id="ic_close">
    <path d="M10.1367 26.3639L18.0007 18.5M25.8646 10.636L18.0007 18.5M18.0007 18.5L10.1367 10.636M18.0007 18.5L25.8646 26.3639" stroke="currentColor" stroke-width="1.5" stroke-linecap="round" stroke-linejoin="round" fill="none"></path>
  </symbol>
  <symbol xmlns="http://www.w3.org/2000/svg" viewBox="0 0 24 24" id="ic_feedback">
    <path d="M13.125 16.875C13.125 17.0975 13.059 17.315 12.9354 17.5C12.8118 17.685 12.6361 17.8292 12.4305 17.9144C12.225 17.9995 11.9988 18.0218 11.7805 17.9784C11.5623 17.935 11.3618 17.8278 11.2045 17.6705C11.0472 17.5132 10.94 17.3127 10.8966 17.0945C10.8532 16.8762 10.8755 16.65 10.9606 16.4445C11.0458 16.2389 11.19 16.0632 11.375 15.9396C11.56 15.816 11.7775 15.75 12 15.75C12.2984 15.75 12.5845 15.8685 12.7955 16.0795C13.0065 16.2905 13.125 16.5766 13.125 16.875ZM12 6.75C9.93188 6.75 8.25 8.26406 8.25 10.125V10.5C8.25 10.6989 8.32902 10.8897 8.46967 11.0303C8.61033 11.171 8.80109 11.25 9 11.25C9.19892 11.25 9.38968 11.171 9.53033 11.0303C9.67099 10.8897 9.75 10.6989 9.75 10.5V10.125C9.75 9.09375 10.7597 8.25 12 8.25C13.2403 8.25 14.25 9.09375 14.25 10.125C14.25 11.1562 13.2403 12 12 12C11.8011 12 11.6103 12.079 11.4697 12.2197C11.329 12.3603 11.25 12.5511 11.25 12.75V13.5C11.25 13.6989 11.329 13.8897 11.4697 14.0303C11.6103 14.171 11.8011 14.25 12 14.25C12.1989 14.25 12.3897 14.171 12.5303 14.0303C12.671 13.8897 12.75 13.6989 12.75 13.5V13.4325C14.46 13.1184 15.75 11.7544 15.75 10.125C15.75 8.26406 14.0681 6.75 12 6.75ZM21.75 12C21.75 13.9284 21.1782 15.8134 20.1068 17.4168C19.0355 19.0202 17.5127 20.2699 15.7312 21.0078C13.9496 21.7458 11.9892 21.9389 10.0979 21.5627C8.20656 21.1865 6.46928 20.2579 5.10571 18.8943C3.74215 17.5307 2.81355 15.7934 2.43735 13.9021C2.06114 12.0108 2.25422 10.0504 2.99218 8.26884C3.73013 6.48726 4.97982 4.96452 6.58319 3.89317C8.18657 2.82183 10.0716 2.25 12 2.25C14.585 2.25273 17.0634 3.28084 18.8913 5.10872C20.7192 6.93661 21.7473 9.41498 21.75 12ZM20.25 12C20.25 10.3683 19.7662 8.77325 18.8596 7.41655C17.9531 6.05984 16.6646 5.00242 15.1571 4.37799C13.6497 3.75357 11.9909 3.59019 10.3905 3.90852C8.79017 4.22685 7.32016 5.01259 6.16637 6.16637C5.01259 7.32015 4.22685 8.79016 3.90853 10.3905C3.5902 11.9908 3.75358 13.6496 4.378 15.1571C5.00242 16.6646 6.05984 17.9531 7.41655 18.8596C8.77326 19.7661 10.3683 20.25 12 20.25C14.1873 20.2475 16.2843 19.3775 17.8309 17.8309C19.3775 16.2843 20.2475 14.1873 20.25 12Z" fill="currentColor"></path>
  </symbol>
  <symbol xmlns="http://www.w3.org/2000/svg" viewBox="0 0 18 18" id="ic_fullscreen">
    <path d="M15 3.54545V6.81818C15 6.96285 14.9425 7.10158 14.8402 7.20388C14.7379 7.30617 14.5992 7.36364 14.4545 7.36364C14.3099 7.36364 14.1711 7.30617 14.0689 7.20388C13.9666 7.10158 13.9091 6.96285 13.9091 6.81818V4.86205L10.4768 8.295C10.3745 8.39735 10.2357 8.45485 10.0909 8.45485C9.94617 8.45485 9.80735 8.39735 9.705 8.295C9.60265 8.19265 9.54515 8.05383 9.54515 7.90909C9.54515 7.76435 9.60265 7.62553 9.705 7.52318L13.138 4.09091H11.1818C11.0372 4.09091 10.8984 4.03344 10.7961 3.93115C10.6938 3.82886 10.6364 3.69012 10.6364 3.54545C10.6364 3.40079 10.6938 3.26205 10.7961 3.15976C10.8984 3.05747 11.0372 3 11.1818 3H14.4545C14.5992 3 14.7379 3.05747 14.8402 3.15976C14.9425 3.26205 15 3.40079 15 3.54545ZM7.52318 9.705L4.09091 13.138V11.1818C4.09091 11.0372 4.03344 10.8984 3.93115 10.7961C3.82886 10.6938 3.69012 10.6364 3.54545 10.6364C3.40079 10.6364 3.26205 10.6938 3.15976 10.7961C3.05747 10.8984 3 11.0372 3 11.1818V14.4545C3 14.5992 3.05747 14.7379 3.15976 14.8402C3.26205 14.9425 3.40079 15 3.54545 15H6.81818C6.96285 15 7.10158 14.9425 7.20388 14.8402C7.30617 14.7379 7.36364 14.5992 7.36364 14.4545C7.36364 14.3099 7.30617 14.1711 7.20388 14.0689C7.10158 13.9666 6.96285 13.9091 6.81818 13.9091H4.86205L8.295 10.4768C8.39735 10.3745 8.45485 10.2357 8.45485 10.0909C8.45485 9.94617 8.39735 9.80735 8.295 9.705C8.19265 9.60265 8.05383 9.54515 7.90909 9.54515C7.76435 9.54515 7.62553 9.60265 7.52318 9.705Z" fill="currentColor"></path>
  </symbol>
  <symbol xmlns="http://www.w3.org/2000/svg" viewBox="0 0 16 16" id="ic_github">
    <path d="M10.6654 14.6847V12.7714C10.6904 12.4535 10.6474 12.1339 10.5394 11.8339C10.4313 11.5339 10.2607 11.2603 10.0387 11.0314C12.132 10.798 14.332 10.0047 14.332 6.36469C14.3319 5.43391 13.9738 4.53882 13.332 3.86469C13.6359 3.05036 13.6144 2.15026 13.272 1.35136C13.272 1.35136 12.4854 1.11802 10.6654 2.33802C9.13737 1.92391 7.52669 1.92391 5.9987 2.33802C4.1787 1.11802 3.39203 1.35136 3.39203 1.35136C3.04962 2.15026 3.02813 3.05036 3.33203 3.86469C2.68545 4.54382 2.32705 5.447 2.33203 6.38469C2.33203 9.99802 4.53203 10.7914 6.62536 11.0514C6.40603 11.278 6.23687 11.5483 6.1289 11.8446C6.02093 12.141 5.97657 12.4567 5.9987 12.7714V14.6847M5.9987 13.3514C3.9987 14 2.33203 13.3514 1.33203 11.3514" stroke="currentColor" stroke-linecap="round" stroke-linejoin="round" fill="none"></path>
  </symbol>
  <symbol xmlns="http://www.w3.org/2000/svg" viewBox="0 0 16 16" id="ic_link_arrow">
    <path fill-rule="evenodd" clip-rule="evenodd" d="M14.0006 2.50035C14.0006 2.36774 13.948 2.24056 13.8542 2.14679C13.7604 2.05302 13.6332 2.00035 13.5006 2.00035H7.50063C7.36802 2.00035 7.24085 2.05302 7.14708 2.14679C7.05331 2.24056 7.00063 2.36774 7.00063 2.50035C7.00063 2.63295 7.05331 2.76013 7.14708 2.8539C7.24085 2.94767 7.36802 3.00035 7.50063 3.00035H12.2936L2.14663 13.1463C2.10014 13.1928 2.06327 13.248 2.03811 13.3088C2.01295 13.3695 2 13.4346 2 13.5003C2 13.5661 2.01295 13.6312 2.03811 13.6919C2.06327 13.7527 2.10014 13.8079 2.14663 13.8543C2.19312 13.9008 2.24831 13.9377 2.30905 13.9629C2.36979 13.988 2.43489 14.001 2.50063 14.001C2.56638 14.001 2.63148 13.988 2.69221 13.9629C2.75295 13.9377 2.80814 13.9008 2.85463 13.8543L13.0006 3.70735V8.50035C13.0006 8.63295 13.0533 8.76013 13.1471 8.8539C13.2408 8.94767 13.368 9.00035 13.5006 9.00035C13.6332 9.00035 13.7604 8.94767 13.8542 8.8539C13.948 8.76013 14.0006 8.63295 14.0006 8.50035V2.50035Z" fill="currentColor"></path>
  </symbol>
  <symbol xmlns="http://www.w3.org/2000/svg" viewBox="0 0 18 18" id="ic_network_data_type_blocks">
    <path d="M2.47276 3.92535C2.64182 3.20459 3.2046 2.64182 3.92535 2.47276V2.47276C4.54997 2.32624 5.20003 2.32624 5.82465 2.47276V2.47276C6.54541 2.64182 7.10818 3.20459 7.27724 3.92535V3.92535C7.42376 4.54997 7.42376 5.20003 7.27724 5.82465V5.82465C7.10818 6.54541 6.54541 7.10818 5.82465 7.27724V7.27724C5.20003 7.42376 4.54997 7.42376 3.92535 7.27724V7.27724C3.2046 7.10818 2.64182 6.54541 2.47276 5.82465V5.82465C2.32624 5.20003 2.32624 4.54997 2.47276 3.92535V3.92535Z" stroke="currentColor" stroke-width="1.5" fill="none"></path>
    <path d="M2.47276 12.1753C2.64182 11.4546 3.2046 10.8918 3.92535 10.7228V10.7228C4.54997 10.5762 5.20003 10.5762 5.82465 10.7228V10.7228C6.54541 10.8918 7.10818 11.4546 7.27724 12.1753V12.1753C7.42376 12.8 7.42376 13.45 7.27724 14.0747V14.0747C7.10818 14.7954 6.54541 15.3582 5.82465 15.5272V15.5272C5.20003 15.6738 4.54997 15.6738 3.92535 15.5272V15.5272C3.2046 15.3582 2.64182 14.7954 2.47276 14.0747V14.0747C2.32624 13.45 2.32624 12.8 2.47276 12.1753V12.1753Z" stroke="currentColor" stroke-width="1.5" fill="none"></path>
    <path d="M10.7228 3.92535C10.8918 3.20459 11.4546 2.64182 12.1753 2.47276V2.47276C12.8 2.32624 13.45 2.32624 14.0747 2.47276V2.47276C14.7954 2.64182 15.3582 3.20459 15.5272 3.92535V3.92535C15.6738 4.54997 15.6738 5.20003 15.5272 5.82465V5.82465C15.3582 6.54541 14.7954 7.10818 14.0747 7.27724V7.27724C13.45 7.42376 12.8 7.42376 12.1753 7.27724V7.27724C11.4546 7.10818 10.8918 6.54541 10.7228 5.82465V5.82465C10.5762 5.20003 10.5762 4.54997 10.7228 3.92535V3.92535Z" stroke="currentColor" stroke-width="1.5" fill="none"></path>
    <path d="M10.7228 12.1753C10.8918 11.4546 11.4546 10.8918 12.1753 10.7228V10.7228C12.8 10.5762 13.45 10.5762 14.0747 10.7228V10.7228C14.7954 10.8918 15.3582 11.4546 15.5272 12.1753V12.1753C15.6738 12.8 15.6738 13.45 15.5272 14.0747V14.0747C15.3582 14.7954 14.7954 15.3582 14.0747 15.5272V15.5272C13.45 15.6738 12.8 15.6738 12.1753 15.5272V15.5272C11.4546 15.3582 10.8918 14.7954 10.7228 14.0747V14.0747C10.5762 13.45 10.5762 12.8 10.7228 12.1753V12.1753Z" stroke="currentColor" stroke-width="1.5" fill="none"></path>
  </symbol>
  <symbol xmlns="http://www.w3.org/2000/svg" viewBox="0 0 18 18" id="ic_network_data_type_charts">
    <path d="M5.52902 7.65137V12.7965" stroke="currentColor" stroke-width="1.5" stroke-linecap="round" stroke-linejoin="round" fill="none"></path>
    <path d="M9.02902 5.18945V12.7965" stroke="currentColor" stroke-width="1.5" stroke-linecap="round" stroke-linejoin="round" fill="none"></path>
    <path d="M12.4714 10.3701V12.7964" stroke="currentColor" stroke-width="1.5" stroke-linecap="round" stroke-linejoin="round" fill="none"></path>
    <path fill-rule="evenodd" clip-rule="evenodd" d="M12.5143 1.5H5.48571C3.03571 1.5 1.5 3.23406 1.5 5.68887V12.3111C1.5 14.7659 3.02857 16.5 5.48571 16.5H12.5143C14.9714 16.5 16.5 14.7659 16.5 12.3111V5.68887C16.5 3.23406 14.9714 1.5 12.5143 1.5Z" stroke="currentColor" stroke-width="1.5" stroke-linecap="round" stroke-linejoin="round" fill="none"></path>
  </symbol>
  <symbol xmlns="http://www.w3.org/2000/svg" viewBox="0 0 18 18" id="ic_network_data_type_params">
    <path d="M9.00015 5.62515C8.33264 5.62515 7.68012 5.82309 7.1251 6.19394C6.57009 6.56479 6.13751 7.0919 5.88206 7.7086C5.62662 8.3253 5.55978 9.0039 5.69 9.65858C5.82023 10.3133 6.14167 10.9146 6.61367 11.3866C7.08567 11.8586 7.68704 12.1801 8.34172 12.3103C8.99641 12.4405 9.67501 12.3737 10.2917 12.1182C10.9084 11.8628 11.4355 11.4302 11.8064 10.8752C12.1772 10.3202 12.3752 9.66767 12.3752 9.00015C12.3742 8.10533 12.0183 7.24743 11.3856 6.6147C10.7529 5.98196 9.89497 5.62608 9.00015 5.62515ZM9.00015 11.2502C8.55515 11.2502 8.12013 11.1182 7.75012 10.871C7.38011 10.6237 7.09172 10.2723 6.92142 9.86119C6.75113 9.45006 6.70657 8.99766 6.79339 8.5612C6.8802 8.12474 7.0945 7.72383 7.40916 7.40916C7.72383 7.0945 8.12474 6.8802 8.5612 6.79339C8.99766 6.70657 9.45006 6.75113 9.86119 6.92142C10.2723 7.09172 10.6237 7.38011 10.871 7.75012C11.1182 8.12013 11.2502 8.55515 11.2502 9.00015C11.2502 9.59689 11.0131 10.1692 10.5911 10.5911C10.1692 11.0131 9.59689 11.2502 9.00015 11.2502ZM15.1877 9.15203C15.1905 9.05078 15.1905 8.94953 15.1877 8.84828L16.2367 7.53765C16.2917 7.46884 16.3298 7.38807 16.3479 7.30185C16.3659 7.21562 16.3635 7.12636 16.3408 7.04125C16.1688 6.3948 15.9115 5.77411 15.5758 5.19554C15.5318 5.11983 15.4708 5.05542 15.3975 5.00745C15.3243 4.95948 15.2409 4.92927 15.1539 4.91922L13.4861 4.73359C13.4167 4.66047 13.3464 4.59015 13.2752 4.52265L13.0783 2.85062C13.0682 2.76358 13.0378 2.68012 12.9897 2.60687C12.9416 2.53363 12.8771 2.47263 12.8012 2.42875C12.2225 2.0936 11.6018 1.8366 10.9555 1.66445C10.8704 1.64181 10.7811 1.63949 10.6949 1.65769C10.6086 1.67589 10.5279 1.71409 10.4591 1.76922L9.15203 2.81265C9.05078 2.81265 8.94953 2.81265 8.84828 2.81265L7.53765 1.7657C7.46884 1.71069 7.38807 1.67262 7.30185 1.65454C7.21562 1.63647 7.12636 1.6389 7.04125 1.66164C6.3949 1.83392 5.77426 2.09117 5.19554 2.42664C5.11983 2.4706 5.05542 2.53163 5.00745 2.60487C4.95948 2.67811 4.92927 2.76154 4.91922 2.84851L4.73359 4.51914C4.66047 4.58898 4.59015 4.65929 4.52265 4.73008L2.85062 4.92203C2.76358 4.93216 2.68012 4.96248 2.60687 5.01057C2.53363 5.05867 2.47263 5.12322 2.42875 5.19906C2.0936 5.77785 1.8366 6.39848 1.66445 7.04476C1.64181 7.12993 1.63949 7.21922 1.65769 7.30545C1.67589 7.39167 1.71409 7.47242 1.76922 7.54117L2.81265 8.84828C2.81265 8.94953 2.81265 9.05078 2.81265 9.15203L1.7657 10.4627C1.71069 10.5315 1.67262 10.6122 1.65454 10.6985C1.63647 10.7847 1.6389 10.8739 1.66164 10.9591C1.83362 11.6055 2.09087 12.2262 2.42664 12.8048C2.4706 12.8805 2.53163 12.9449 2.60487 12.9929C2.67811 13.0408 2.76154 13.071 2.84851 13.0811L4.51633 13.2667C4.58617 13.3398 4.65648 13.4102 4.72726 13.4777L4.92203 15.1497C4.93216 15.2367 4.96248 15.3202 5.01057 15.3934C5.05867 15.4667 5.12322 15.5277 5.19906 15.5716C5.77785 15.9067 6.39848 16.1637 7.04476 16.3359C7.12993 16.3585 7.21922 16.3608 7.30545 16.3426C7.39167 16.3244 7.47242 16.2862 7.54117 16.2311L8.84828 15.1877C8.94953 15.1905 9.05078 15.1905 9.15203 15.1877L10.4627 16.2367C10.5315 16.2917 10.6122 16.3298 10.6985 16.3479C10.7847 16.3659 10.8739 16.3635 10.9591 16.3408C11.6055 16.1688 12.2262 15.9115 12.8048 15.5758C12.8805 15.5318 12.9449 15.4708 12.9929 15.3975C13.0408 15.3243 13.071 15.2409 13.0811 15.1539L13.2667 13.4861C13.3398 13.4167 13.4102 13.3464 13.4777 13.2752L15.1497 13.0783C15.2367 13.0682 15.3202 13.0378 15.3934 12.9897C15.4667 12.9416 15.5277 12.8771 15.5716 12.8012C15.9067 12.2225 16.1637 11.6018 16.3359 10.9555C16.3585 10.8704 16.3608 10.7811 16.3426 10.6949C16.3244 10.6086 16.2862 10.5279 16.2311 10.4591L15.1877 9.15203ZM14.0556 8.695C14.0676 8.89826 14.0676 9.10205 14.0556 9.30531C14.0472 9.44447 14.0908 9.58179 14.178 9.69062L15.1757 10.9373C15.0612 11.3011 14.9146 11.6541 14.7377 11.992L13.1486 12.172C13.0102 12.1873 12.8824 12.2535 12.79 12.3576C12.6547 12.5098 12.5105 12.6539 12.3583 12.7893C12.2542 12.8817 12.188 13.0095 12.1727 13.1479L11.9962 14.7355C11.6583 14.9126 11.3054 15.0592 10.9415 15.1736L9.69414 14.1759C9.59433 14.0961 9.47034 14.0527 9.34258 14.0528H9.30883C9.10556 14.0648 8.90178 14.0648 8.69851 14.0528C8.55935 14.0444 8.42204 14.088 8.3132 14.1752L7.06304 15.1736C6.6992 15.0591 6.34625 14.9125 6.00836 14.7355L5.82836 13.1486C5.813 13.0102 5.74686 12.8824 5.64273 12.79C5.49051 12.6547 5.34636 12.5105 5.21101 12.3583C5.11858 12.2542 4.99081 12.188 4.85242 12.1727L3.26476 11.9955C3.08771 11.6576 2.94112 11.3047 2.82672 10.9408L3.82445 9.69344C3.91157 9.5846 3.95517 9.44728 3.94679 9.30812C3.93484 9.10486 3.93484 8.90107 3.94679 8.69781C3.95517 8.55865 3.91157 8.42134 3.82445 8.3125L2.82672 7.06304C2.9412 6.6992 3.0878 6.34625 3.26476 6.00836L4.85172 5.82836C4.9901 5.813 5.11787 5.74686 5.21031 5.64273C5.34566 5.49051 5.48981 5.34636 5.64203 5.21101C5.74657 5.11852 5.81298 4.99045 5.82836 4.85172L6.00484 3.26476C6.3427 3.08771 6.69565 2.94112 7.05953 2.82672L8.30687 3.82445C8.41571 3.91157 8.55302 3.95517 8.69219 3.94679C8.89545 3.93484 9.09924 3.93484 9.3025 3.94679C9.44166 3.95517 9.57897 3.91157 9.68781 3.82445L10.9373 2.82672C11.3011 2.9412 11.6541 3.0878 11.992 3.26476L12.172 4.85172C12.1873 4.9901 12.2535 5.11787 12.3576 5.21031C12.5098 5.34566 12.6539 5.48981 12.7893 5.64203C12.8817 5.74615 13.0095 5.81229 13.1479 5.82765L14.7355 6.00414C14.9126 6.34199 15.0592 6.69495 15.1736 7.05883L14.1759 8.30617C14.0879 8.41592 14.0442 8.55465 14.0535 8.695H14.0556Z" fill="currentColor"></path>
  </symbol>
  <symbol xmlns="http://www.w3.org/2000/svg" viewBox="0 0 30 30" id="ic_notification">
    <path fill-rule="evenodd" clip-rule="evenodd" d="M24.5804 7.76158C24.5804 4.35574 22.2519 2.99042 18.8994 2.99042H11.0265C7.77703 2.99042 5.3418 4.26265 5.3418 7.53444V25.7639C5.3418 26.6626 6.30869 27.2285 7.09189 26.7892L14.9934 22.3568L22.8266 26.7817C23.611 27.2236 24.5804 26.6576 24.5804 25.7577V7.76158Z" stroke="currentColor" stroke-width="1.5" stroke-linecap="round" stroke-linejoin="round" fill="none"></path>
    <path d="M10.3828 11.3204H19.4436" stroke="currentColor" stroke-width="1.5" stroke-linecap="round" stroke-linejoin="round" fill="none"></path>
  </symbol>
  <symbol xmlns="http://www.w3.org/2000/svg" viewBox="0 0 18 18" id="ic_pin">
    <path d="M7.125 10.8747L2.25 15.7497M3.75 7.11343L10.6448 14.0082L11.9175 12.7354L11.6228 9.89518L15.7553 6.39043L11.3678 2.00293L7.86225 6.13543L5.02275 5.84068L3.75 7.11343Z" stroke="currentColor" stroke-linecap="round" stroke-linejoin="round" fill="none"></path>
  </symbol>
  <symbol xmlns="http://www.w3.org/2000/svg" viewBox="0 0 16 16" id="ic_prices">
    <path d="M14.5 13C14.5 13.1326 14.4473 13.2598 14.3536 13.3536C14.2598 13.4473 14.1326 13.5 14 13.5H2C1.86739 13.5 1.74021 13.4473 1.64645 13.3536C1.55268 13.2598 1.5 13.1326 1.5 13V3C1.5 2.86739 1.55268 2.74021 1.64645 2.64645C1.74021 2.55268 1.86739 2.5 2 2.5C2.13261 2.5 2.25979 2.55268 2.35355 2.64645C2.44732 2.74021 2.5 2.86739 2.5 3V9.79313L5.64625 6.64625C5.69269 6.59976 5.74783 6.56288 5.80853 6.53772C5.86923 6.51256 5.93429 6.49961 6 6.49961C6.06571 6.49961 6.13077 6.51256 6.19147 6.53772C6.25217 6.56288 6.30731 6.59976 6.35375 6.64625L8 8.29313L11.2931 5H10C9.86739 5 9.74021 4.94732 9.64645 4.85355C9.55268 4.75979 9.5 4.63261 9.5 4.5C9.5 4.36739 9.55268 4.24021 9.64645 4.14645C9.74021 4.05268 9.86739 4 10 4H12.5C12.6326 4 12.7598 4.05268 12.8536 4.14645C12.9473 4.24021 13 4.36739 13 4.5V7C13 7.13261 12.9473 7.25979 12.8536 7.35355C12.7598 7.44732 12.6326 7.5 12.5 7.5C12.3674 7.5 12.2402 7.44732 12.1464 7.35355C12.0527 7.25979 12 7.13261 12 7V5.70687L8.35375 9.35375C8.30731 9.40024 8.25217 9.43712 8.19147 9.46228C8.13077 9.48744 8.06571 9.50039 8 9.50039C7.93429 9.50039 7.86923 9.48744 7.80853 9.46228C7.74783 9.43712 7.69269 9.40024 7.64625 9.35375L6 7.70687L2.5 11.2069V12.5H14C14.1326 12.5 14.2598 12.5527 14.3536 12.6464C14.4473 12.7402 14.5 12.8674 14.5 13Z" fill="currentColor"></path>
  </symbol>
  <symbol xmlns="http://www.w3.org/2000/svg" viewBox="0 0 28 28" id="ic_social_cyb">
    <circle cx="14" cy="14" r="14" fill="currentColor"></circle>
    <circle cx="14" cy="14" r="7" fill="black"></circle>
  </symbol>
  <symbol xmlns="http://www.w3.org/2000/svg" viewBox="0 0 28 28" id="ic_social_github">
    <path fill-rule="evenodd" clip-rule="evenodd" d="M14 0C6.265 0 0 6.265 0 14C0 20.195 4.0075 25.4275 9.5725 27.2825C10.2725 27.405 10.535 26.985 10.535 26.6175C10.535 26.285 10.5175 25.1825 10.5175 24.01C7 24.6575 6.09 23.1525 5.81 22.365C5.6525 21.9625 4.97 20.72 4.375 20.3875C3.885 20.125 3.185 19.4775 4.3575 19.46C5.46 19.4425 6.2475 20.475 6.51 20.895C7.77 23.0125 9.7825 22.4175 10.5875 22.05C10.71 21.14 11.0775 20.5275 11.48 20.1775C8.365 19.8275 5.11 18.62 5.11 13.265C5.11 11.7425 5.6525 10.4825 6.545 9.5025C6.405 9.1525 5.915 7.7175 6.685 5.7925C6.685 5.7925 7.8575 5.425 10.535 7.2275C11.655 6.9125 12.845 6.755 14.035 6.755C15.225 6.755 16.415 6.9125 17.535 7.2275C20.2125 5.4075 21.385 5.7925 21.385 5.7925C22.155 7.7175 21.665 9.1525 21.525 9.5025C22.4175 10.4825 22.96 11.725 22.96 13.265C22.96 18.6375 19.6875 19.8275 16.5725 20.1775C17.08 20.615 17.5175 21.455 17.5175 22.7675C17.5175 24.64 17.5 26.145 17.5 26.6175C17.5 26.985 17.7625 27.4225 18.4625 27.2825C21.2417 26.3442 23.6567 24.558 25.3676 22.1753C27.0785 19.7926 27.9992 16.9333 28 14C28 6.265 21.735 0 14 0Z" fill="currentColor"></path>
  </symbol>
  <symbol xmlns="http://www.w3.org/2000/svg" viewBox="0 0 28 28" id="ic_social_keybase">
    <circle cx="14" cy="14" r="14" fill="currentColor"></circle>
    <path fill-rule="evenodd" clip-rule="evenodd" d="M11.1115 11.5118C10.8485 10.9876 10.7456 10.3779 10.8126 9.72607C9.07657 9.74086 8.8988 9.03411 8.86934 8.33653L8.93176 7.31906C8.97267 6.65276 9.56127 6.13199 10.2226 6.13199C11.6172 6.18707 11.749 6.22031 12.1356 6.65157L13.0911 5.29688L13.8823 5.76685C13.3589 6.89178 13.5421 7.17391 13.544 7.17622C15.958 7.23166 17.3654 9.22108 16.5543 11.3708C21.4133 13.2387 23.1304 18.12 21.0913 22.7023H20.0397C20.9506 21.1576 21.1947 19.2294 20.8996 17.4846C18.4469 21.1426 15.1136 15.0697 8.57066 20.5545L9.29876 18.2499L7.76526 19.892C7.94909 20.9298 8.36794 21.8863 8.9656 22.7023H7.85478C7.47791 22.0824 7.19074 21.4113 7.00201 20.7093L6.0862 21.69C5.82476 16.7749 6.96241 13.3794 11.1115 11.5118V11.5118ZM13.0097 20.7927C13.0097 20.176 12.344 19.7885 11.8144 20.0968C11.2847 20.4051 11.2847 21.1801 11.8144 21.4884C12.344 21.7967 13.0097 21.4093 13.0097 20.7927ZM17.2659 20.7927C17.2659 20.176 16.6002 19.7885 16.0705 20.0968C15.5408 20.4051 15.5409 21.1801 16.0705 21.4884C16.6002 21.7967 17.2659 21.4093 17.2659 20.7927ZM11.5115 7.66132C11.3046 8.03874 11.1326 8.41717 11.0083 8.80573L10.1012 8.74906C9.91857 8.73777 9.77881 8.57851 9.78945 8.39409L9.85187 7.37669C9.86278 7.19906 10.0087 7.06162 10.1841 7.06162C10.1907 7.06162 11.2114 7.12519 11.2114 7.12519C11.4888 7.16959 11.5603 7.34633 11.5115 7.66132ZM13.9746 11.5183L16.5817 14.758C16.813 15.0443 16.3896 15.3932 16.1582 15.1068L15.8986 14.7837L14.8181 15.6717L14.1313 14.8262L15.2163 13.9345L14.8378 13.4635L14.3169 13.8951L13.9676 13.449L14.4831 13.0219L13.5513 11.8671C13.3287 11.5918 13.7521 11.243 13.9746 11.5183V11.5183Z" fill="black"></path>
  </symbol>
  <symbol xmlns="http://www.w3.org/2000/svg" viewBox="0 0 28 28" id="ic_social_telegram">
    <path fill-rule="evenodd" clip-rule="evenodd" d="M28 14C28 21.7315 21.7315 28 14 28C6.2685 28 0 21.7315 0 14C0 6.2685 6.2685 0 14 0C21.7315 0 28 6.2685 28 14ZM14.5017 10.3355C13.1402 10.9013 10.4183 12.0738 6.33733 13.8518C5.67467 14.1155 5.327 14.3733 5.2955 14.6253C5.24183 15.0523 5.77617 15.2203 6.50183 15.4478C6.601 15.4793 6.70367 15.5108 6.80867 15.5458C7.52383 15.778 8.48517 16.0498 8.9845 16.0603C9.43833 16.0697 9.94467 15.883 10.5035 15.5003C14.3162 12.9255 16.2843 11.6247 16.408 11.5967C16.4955 11.5768 16.6168 11.5512 16.6985 11.6247C16.7802 11.697 16.772 11.8347 16.7638 11.872C16.7102 12.0972 14.6172 14.0443 13.5322 15.0523C13.1938 15.3662 12.9547 15.589 12.9057 15.6403C12.796 15.7535 12.684 15.862 12.5767 15.9658C11.9117 16.6052 11.4147 17.0858 12.6047 17.8698C13.1763 18.2467 13.6337 18.5582 14.0898 18.8685C14.588 19.208 15.085 19.5463 15.729 19.9687C15.8923 20.076 16.0487 20.1868 16.2015 20.2953C16.7813 20.7095 17.3028 21.0805 17.9468 21.0222C18.3202 20.9872 18.7075 20.636 18.9035 19.5872C19.3667 17.1068 20.279 11.7355 20.4902 9.52117C20.503 9.33732 20.4952 9.1526 20.4668 8.9705C20.4499 8.82342 20.3782 8.68809 20.2662 8.59133C20.0993 8.45483 19.8403 8.42567 19.7237 8.428C19.1975 8.43733 18.3902 8.7185 14.5017 10.3355Z" fill="currentColor"></path>
  </symbol>
  <symbol xmlns="http://www.w3.org/2000/svg" viewBox="0 0 28 28" id="ic_social_twitter">
    <path d="M14 0C6.26875 0 0 6.26875 0 14C0 21.7313 6.26875 28 14 28C21.7313 28 28 21.7313 28 14C28 6.26875 21.7313 0 14 0ZM20.7281 10.5531C20.7375 10.7 20.7375 10.8531 20.7375 11.0031C20.7375 15.5906 17.2438 20.875 10.8594 20.875C8.89062 20.875 7.06562 20.3031 5.52812 19.3188C5.80937 19.35 6.07813 19.3625 6.36563 19.3625C7.99063 19.3625 9.48438 18.8125 10.675 17.8813C9.15 17.85 7.86875 16.85 7.43125 15.475C7.96562 15.5531 8.44687 15.5531 8.99687 15.4125C8.21164 15.253 7.50586 14.8265 6.99943 14.2056C6.49299 13.5846 6.21715 12.8075 6.21875 12.0063V11.9625C6.67813 12.2219 7.21875 12.3812 7.78438 12.4031C7.30888 12.0862 6.91893 11.6569 6.6491 11.1532C6.37926 10.6495 6.23789 10.087 6.2375 9.51562C6.2375 8.86875 6.40625 8.27812 6.70938 7.76562C7.58095 8.83855 8.66853 9.71607 9.90145 10.3411C11.1344 10.9662 12.485 11.3249 13.8656 11.3938C13.375 9.03438 15.1375 7.125 17.2563 7.125C18.2563 7.125 19.1562 7.54375 19.7906 8.21875C20.575 8.07188 21.325 7.77812 21.9937 7.38437C21.7344 8.1875 21.1906 8.86562 20.4688 9.29375C21.1688 9.21875 21.8438 9.025 22.4688 8.75313C21.9969 9.44688 21.4062 10.0625 20.7281 10.5531Z" fill="currentColor"></path>
  </symbol>
  <symbol xmlns="http://www.w3.org/2000/svg" viewBox="0 0 16 16" id="ic_telegram">
    <path d="M13.9987 3.3335L1.33203 8.3335L5.9987 9.00016M13.9987 3.3335L12.332 13.3335L5.9987 9.00016M13.9987 3.3335L5.9987 9.00016M5.9987 9.00016V12.6668L8.1647 10.4822" stroke="currentColor" stroke-linecap="round" stroke-linejoin="round" fill="none"></path>
  </symbol>
  <symbol xmlns="http://www.w3.org/2000/svg" viewBox="0 0 18 18" id="ic_wallet">
    <path d="M14.25 15H3.75C2.92157 15 2.25 14.3285 2.25 13.5V6.75C2.25 5.92157 2.92157 5.25 3.75 5.25H14.25C15.0784 5.25 15.75 5.92157 15.75 6.75V13.5C15.75 14.3285 15.0784 15 14.25 15Z" stroke="currentColor" fill="none"></path>
    <path d="M12.375 10.5C12.1679 10.5 12 10.3321 12 10.125C12 9.91792 12.1679 9.75 12.375 9.75C12.5821 9.75 12.75 9.91792 12.75 10.125C12.75 10.3321 12.5821 10.5 12.375 10.5Z" fill="currentColor" stroke="currentColor" stroke-linecap="round" stroke-linejoin="round"></path>
    <path d="M13.5 5.25V4.20242C13.5 3.21687 12.5658 2.49913 11.6135 2.75306L3.3635 4.95307C2.70688 5.12817 2.25 5.72285 2.25 6.40242V6.75" stroke="currentColor" fill="none"></path>
  </symbol>
</svg>